<?xml version="1.0" encoding="UTF-8" standalone="no"?>
<svg width="60px" height="50px" viewBox="0 0 60 50" version="1.1" xmlns="http://www.w3.org/2000/svg" xmlns:xlink="http://www.w3.org/1999/xlink">
    <!-- Generator: Sketch 39.1 (31720) - http://www.bohemiancoding.com/sketch -->
    <title>Combined Shape</title>
    <desc>Created with Sketch.</desc>
    <defs></defs>
    <g id="proto-FINAL" stroke="none" stroke-width="1" fill="none" fill-rule="evenodd">
        <g id="dash-sys-dialog" transform="translate(-105.000000, -268.000000)" fill="#FFFFFF">
            <g id="LEFT-RAIL" transform="translate(15.000000, 216.000000)">
                <g id="rollover" transform="translate(45.000000, 0.000000)">
                    <path d="M75,69.5 C69.5,69.5 65,74 65,79.5 C65,85 69.5,89.5 75,89.5 C80.5,89.5 85,85 85,79.5 C85,74 80.5,69.5 75,69.5 L75,69.5 Z M100,62 L93.5,62 C91.75,62 90.25,61.125 89.25,59.75 L86.375,55.375 C85.5,53.25 83.375,52 81.125,52 L68.875,52 C66.625,52 64.5,53.25 63.5,55.375 L60.625,59.75 C59.75,61.125 58.125,62 56.375,62 L50,62 C47.25,62 45,64.25 45,67 L45,97 C45,99.75 47.25,102 50,102 L100,102 C102.75,102 105,99.75 105,97 L105,67 C105,64.25 102.75,62 100,62 L100,62 Z M75,94.5 C66.75,94.5 60,87.75 60,79.5 C60,71.25 66.75,64.5 75,64.5 C83.25,64.5 90,71.25 90,79.5 C90,87.75 83.25,94.5 75,94.5 Z M76.3863636,80.1022727 L81.0738636,80.1022727 C81.3011364,80.1022727 81.5,79.9034091 81.5,79.6761364 L81.5,78.8238636 C81.5,78.5965909 81.3011364,78.3977273 81.0738636,78.3977273 L76.3863636,78.3977273 C76.2159091,78.3977273 76.1022727,78.2840909 76.1022727,78.1136364 L76.1022727,73.4261364 C76.1022727,73.1988636 75.9034091,73 75.6761364,73 L74.8238636,73 C74.5965909,73 74.3977273,73.1988636 74.3977273,73.4261364 L74.3977273,78.1136364 C74.3977273,78.2840909 74.2840909,78.3977273 74.1136364,78.3977273 L69.4261364,78.3977273 C69.1988636,78.3977273 69,78.5965909 69,78.8238636 L69,79.6761364 C69,79.9034091 69.1988636,80.1022727 69.4261364,80.1022727 L74.1136364,80.1022727 C74.2840909,80.1022727 74.3977273,80.2159091 74.3977273,80.3863636 L74.3977273,85.0738636 C74.3977273,85.3011364 74.5965909,85.5 74.8238636,85.5 L75.6761364,85.5 C75.9034091,85.5 76.1022727,85.3011364 76.1022727,85.0738636 L76.1022727,80.3863636 C76.1022727,80.2159091 76.2159091,80.1022727 76.3863636,80.1022727 Z" id="Combined-Shape"></path>
                </g>
            </g>
        </g>
    </g>
</svg>