<?xml version="1.0" encoding="utf-8"?>
<!-- Generator: Adobe Illustrator 21.0.2, SVG Export Plug-In . SVG Version: 6.00 Build 0)  -->
<svg version="1.1" id="Layer_1" xmlns="http://www.w3.org/2000/svg" xmlns:xlink="http://www.w3.org/1999/xlink" x="0px" y="0px"
	 viewBox="0 0 200 200" style="enable-background:new 0 0 200 200;" xml:space="preserve">
<style type="text/css">
	.st0{fill-rule:evenodd;clip-rule:evenodd;fill:#F1717D;}
	.st1{opacity:0.1;fill-rule:evenodd;clip-rule:evenodd;fill:#221F1F;}
</style>
<g>
	<path class="st0" d="M120.5,64.1c-7.4,1-13.1,5-18,11.1c-0.3-0.8-0.4-1.1-0.5-1.5c-2.9-9.8-9.1-16.4-18.9-19.3
		c-9.8-2.9-18.5-1-25.3,6.8c-9.3,10.6-9.8,22.5-4.7,35.1c2.7,6.6,7,12.3,11.3,17.9c5.6,7.3,11.3,14.6,16.6,22.1
		c2.5,3.5,4.1,7.5,6.2,11.4c2.4-2,4.6-4.3,7.2-5.9c7.4-4.5,15-8.8,22.5-13.1c5.8-3.3,11.7-6.3,17.2-10.1
		c9.2-6.3,15.8-14.9,16.4-26.5C151.6,72,137.5,61.8,120.5,64.1z"/>
	<path class="st1" d="M120.5,64.1c-7.4,1-13.1,5-18,11.1c0,0,0-0.1,0-0.1l-15.4,72.4c0,0,0,0.1,0.1,0.1c2.4-2,4.6-4.3,7.2-5.9
		c7.4-4.5,15-8.8,22.5-13.1c5.8-3.3,11.7-6.3,17.2-10.1c9.2-6.3,15.8-14.9,16.4-26.5C151.6,72,137.5,61.8,120.5,64.1z"/>
</g>
</svg>
